# xmcd CD database file
# Generated: Thu Apr 23 16:15:08 2009 by WSPse's MP3c
#
# Track frame offsets:
#       150
#       14321
#       26170
#       36502
#       49054
#       60482
#       71253
#       80093
#       88919
#       101959
#       115469
#
# Disc length: 1724 seconds
#
# Revision: 0
# Processed by: cddbd v1.5.2PL0 Copyright (c) Steve Scherf et al.
# Submitted via: MP3c 0.31
#   WSPse mp3c-0.31 (NLS) - ENGLISH (Apr 11 2009) Default:MP3
#
DISCID=9906ba0b
DTITLE=Danny Bowers - Banjo
DYEAR=2008
DGENRE=Bluegrass
TTITLE0=Leaving Lexington
TTITLE1=Gar's Breakdown
TTITLE2=No Rhyme or Reason
TTITLE3=Home Sweet Home
TTITLE4=T&T Special
TTITLE5=God Rest Ye Merry Gentlemen
TTITLE6=We Gather Together
TTITLE7=For the Beauty of the Earth
TTITLE8=Stairway to heaven
TTITLE9=Ol' Worth
TTITLE10=Not the Same
EXTD=
EXTT0=
EXTT1=
EXTT2=
EXTT3=
EXTT4=
EXTT5=
EXTT6=
EXTT7=
EXTT8=
EXTT9=
EXTT10=
PLAYORDER=
